<svg xmlns="http://www.w3.org/2000/svg" viewBox="0 0 512 512" width="512" height="512" role="img" aria-label="OneSky">
  <rect width="512" height="512" fill="#161229"/>
  <g stroke="#d4b072" stroke-width="6" stroke-linecap="round" fill="none" opacity="0.55">
    <line x1="256" y1="256" x2="406" y2="256"/>
    <line x1="256" y1="256" x2="362" y2="362"/>
    <line x1="256" y1="256" x2="256" y2="406"/>
    <line x1="256" y1="256" x2="150" y2="362"/>
    <line x1="256" y1="256" x2="106" y2="256"/>
    <line x1="256" y1="256" x2="150" y2="150"/>
    <line x1="256" y1="256" x2="256" y2="106"/>
    <line x1="256" y1="256" x2="362" y2="150"/>
  </g>
  <g fill="#d4b072" opacity="0.7">
    <circle cx="406" cy="256" r="10"/>
    <circle cx="362" cy="362" r="10"/>
    <circle cx="256" cy="406" r="10"/>
    <circle cx="150" cy="362" r="10"/>
    <circle cx="106" cy="256" r="10"/>
    <circle cx="150" cy="150" r="10"/>
    <circle cx="256" cy="106" r="10"/>
    <circle cx="362" cy="150" r="10"/>
  </g>
  <circle cx="256" cy="256" r="48" fill="#f3d9a8" opacity="0.18"/>
  <circle cx="256" cy="256" r="28" fill="#f3d9a8"/>
</svg>
